<svg id="Слой_5" data-name="Слой 5" xmlns="http://www.w3.org/2000/svg" viewBox="0 0 1000 1000"><defs><style>.cls-1{fill:#d2e3ff;}.cls-2{opacity:0.35;}</style></defs><circle class="cls-1" cx="500" cy="500" r="500"/><path d="M508.78,31.17c7.15,3.19,10,8.68,9.82,16.49-.29,17.56,0,35.13-.17,52.69,0,3.86.81,5.6,5,6.57,16.39,3.75,30.62,11.74,41.25,24.86,14.55,17.93,21.09,38.68,19.6,61.89a23.27,23.27,0,0,0,1.18,8.51q21.79,66.34,43.77,132.64,10.8,32.79,21.22,65.71c1.12,3.51,2.7,4.76,6.49,4.72,18.42-.22,36.85-.1,55.27-.1h4.57c.5-3.32.69-6.22,1.4-9a12.41,12.41,0,0,1,12.41-9.6c5.9,0,10.71,3.81,12.35,9.77a11.79,11.79,0,0,1,.59,3c.05,13.08.37,26.17-.07,39.23-.23,7-6.49,11.85-13.37,11.63s-12.14-5.29-12.72-12.47c-.11-1.35-.15-2.71-.24-4.49H661.55c3.36,10.38,6.58,20.49,9.9,30.56q17,51.63,34.11,103.25,14,42.33,27.78,84.72c.59,1.79,1.09,3.61,1.62,5.42,2.35,8.07,5.66,14.78,12.61,20.85,16.33,14.28,22.2,33.24,16.84,54.57a27.54,27.54,0,0,0,1.09,17.42c5.22,13.7,6.69,27.73,3.49,42.08-3.29,14.69-10.27,27.25-21.94,37-2.86,2.39-5.47,5.07-8.52,7.93,3.38,10.39,6.9,21.13,10.36,31.88,2.57,8-.2,15-6.9,17.78-7.5,3.08-15.26-.51-18.09-8.77-5.14-15-10-30-15-45-6-18.1-12.23-36.12-17.72-54.37a33.77,33.77,0,0,0-12.12-18c-16.37-12.92-22.42-37.54-15.91-58.28a14.53,14.53,0,0,0,0-8.29c-13.23-40.68-26.67-81.29-40-121.92q-14-42.58-28-85.18c-5.46-16.65-10.94-33.28-16.26-50-1-3.11-2.52-4.24-5.86-4.21q-24.78.25-49.58,0c-3.78,0-5.24,1-5,4.93.3,5.66.19,11.36,0,17-.22,8.45-5.62,14.12-13.22,14.14s-13.05-5.73-13.18-14.13c-.1-7,0-14.05,0-21.37-1.76-.21-3.07-.51-4.38-.52-16.7,0-33.41.11-50.1-.12-3.73,0-5,1.5-6.08,4.67q-21.35,65.13-42.86,130.21-8.87,26.91-17.68,53.84c-8.08,24.65-16.19,49.29-24.12,74a11.22,11.22,0,0,0,.35,6.37,55.89,55.89,0,0,1-21.05,63,12.74,12.74,0,0,0-4.22,6.06c-9.37,28-18.56,56.09-27.79,84.16-2.46,7.51-4.79,15.06-7.37,22.53-2.83,8.23-9.84,12-17.32,9.49s-10.51-9.6-7.77-18.11c3.42-10.62,6.89-21.22,9.87-30.39-7.77-9.24-16.2-17.09-21.94-26.57-10.18-16.85-11.51-35.36-5.4-54.23.42-1.31.77-2.65,1.31-3.91a30.52,30.52,0,0,0,1.35-21.75c-4.41-15.6-1.86-30.9,8.06-44.11,4.13-5.51,9.73-9.91,14.55-14.93,1.69-1.77,3.68-3.66,4.42-5.87,6.17-18.22,12-36.56,18.08-54.81,2.71-8.14,8.59-11.58,16.2-9.84,7.82,1.79,11.78,9.73,9,18.37-6.27,19.28-12.64,38.53-19,57.79l-29,88.11C264.35,781.45,269,798,281.26,809q90.93-276.56,181.56-552.22l-19.64-18.7c-1,2.77-2,5.51-2.92,8.3q-14.19,43.08-28.36,86.17-19.29,58.76-38.56,117.53-14.23,43.32-28.54,86.62l-10.17,30.83c-2.73,8.29-8.74,11.69-16.57,9.39-6.95-2-10.9-9.19-8.74-16.9,2.31-8.26,5.15-16.37,7.83-24.53q16.34-49.7,32.72-99.38c.26-.79.46-1.61.81-2.88H293.53c-.16,1.8-.29,3.47-.48,5.14a13.1,13.1,0,0,1-13.28,11.89c-6.9-.09-12.67-5.22-12.84-12.24-.3-12.4-.28-24.8-.09-37.2.12-8.41,5.26-13.93,12.59-14.22,7.58-.29,12.86,5,13.67,13.71.13,1.36.2,2.72.33,4.43a38.31,38.31,0,0,0,4,.41c19.46,0,38.92-.06,58.37.1,3.33,0,4.78-1,5.81-4.18q24.48-75,49.18-149.87c5-15.34,10.11-30.66,15-46.05a19.59,19.59,0,0,0,1-8c-2.43-20.62,1.77-39.53,13.09-57.06,11.55-17.9,27.82-28.62,48.26-33.37,3.22-.75,4.05-2.11,4-5.21-.13-17.91.21-35.83-.19-53.73-.18-7.89,2.64-13.25,9.64-16.57Zm59.94,205.49C562,242.86,555.43,248.8,549.1,255c-.84.83-.85,3.15-.43,4.54,2.35,7.73,4.94,15.38,7.45,23q14.13,43.08,28.25,86.16Q603.48,427,622.64,485.23q14.33,43.54,28.69,87.09,15,45.76,30.08,91.54c1,3.06,2.17,6,3,8.42L709.18,664Q639,450.59,568.72,236.66Zm-87.91,50.89c-12.9,39.29-25.67,78.17-38.49,117.17h49.79c0-8.16-.22-15.9.07-23.61.25-6.62,5.94-11.82,12.52-12.09a13.12,13.12,0,0,1,13.46,11.07,56.64,56.64,0,0,1,.32,7.72c0,5.63,0,11.27,0,16.94h49.72L529.69,287.56C511.7,298.34,498.61,298.33,480.81,287.55Zm56.21-58c17.21-13.06,24.88-38.44,18.07-61.09-6.51-21.62-32.26-38.94-52.46-37.25-19.93,1.66-42.86,16.93-48.59,41.68-5.12,22.12,5.11,47.53,19.58,56.42C493.27,207.31,517.56,207.67,537,229.54ZM687.35,719.13c-1.12,14.8,14,28,26,28s26.63-12.68,26.41-27.3c-.23-15.88-11.2-27.31-26.24-27.34S687.33,703.84,687.35,719.13Zm54.83,47-24,9c3,9.38,6.05,19,9.14,28.55.57,1.76,1.26,3.48,1.9,5.27C740,801.83,748.19,779.19,742.18,766.14Zm-237-498.32a12.82,12.82,0,0,0,13-13.1c0-7.95-5.5-13.78-12.9-13.79s-12.9,5.72-13,13.68A12.84,12.84,0,0,0,505.17,267.82Z"/></svg>